<svg width="265" height="265" viewBox="0 0 265 265" fill="none" xmlns="http://www.w3.org/2000/svg">
<path d="M132.028 132.028L91.3546 40.6737C115.583 29.8863 143.105 29.1657 167.865 38.6702L132.028 132.028Z" fill="#FE504F" stroke="white" stroke-width="0.3"/>
<path d="M132.028 132.028L167.865 38.6701C192.625 48.1747 212.595 67.1258 223.383 91.3545L132.028 132.028Z" fill="#F96229" stroke="white" stroke-width="0.3"/>
<path d="M132.028 132.028L223.383 91.3545C234.17 115.583 234.891 143.105 225.386 167.865L132.028 132.028Z" fill="#F8C64D" stroke="white" stroke-width="0.3"/>
<path d="M132.028 132.028L225.386 167.865C215.882 192.625 196.931 212.595 172.702 223.383L132.028 132.028Z" fill="#0CCE6E" stroke="white" stroke-width="0.3"/>
<path d="M132.028 132.028L172.702 223.383C148.473 234.17 120.952 234.891 96.1914 225.386L132.028 132.028Z" fill="#24A7EF" stroke="white" stroke-width="0.3"/>
<path d="M132.028 132.028L96.1914 225.386C71.4313 215.882 51.461 196.931 40.6737 172.702L132.028 132.028Z" fill="#2A5AE0" stroke="white" stroke-width="0.3"/>
<path d="M132.028 132.028L40.6736 172.702C29.8863 148.473 29.1656 120.951 38.6702 96.1914L132.028 132.028Z" fill="#5B1ACE" stroke="white" stroke-width="0.3"/>
<path d="M132.028 132.028L38.6702 96.1914C48.1747 71.4313 67.1258 51.461 91.3546 40.6737L132.028 132.028Z" fill="#F25CB3" stroke="white" stroke-width="0.3"/>
<circle cx="132.5" cy="132.5" r="12.5" fill="white"/>
<circle cx="132" cy="132" r="60" fill="white" fill-opacity="0.5"/>
</svg>
