<svg width="416" height="512" viewBox="0 0 416 512" fill="none" xmlns="http://www.w3.org/2000/svg">
<path d="M370.549 235.906C371.412 237.303 369.255 254.111 366.884 264.458C361.456 288.147 349.908 311.699 334.183 331.151C331.652 334.282 329.129 336.87 328.577 336.901C328.024 336.932 307.641 317.023 283.28 292.657L238.988 248.357L241.525 242.907C242.92 239.91 244.066 236.896 244.071 236.208C244.079 235.221 257.341 234.958 307.022 234.958C345.595 234.958 370.19 235.325 370.549 235.906Z" fill="#FFEEC6"/>
<path d="M336.155 127.192C356.039 152.92 366.78 180.068 370.584 214.208L371.225 219.958H307.653C257.469 219.958 244.078 219.695 244.068 218.708C244.061 218.021 242.986 215.208 241.678 212.458L239.301 207.458L283.937 162.708C308.487 138.095 328.673 117.958 328.795 117.958C328.918 117.958 332.229 122.113 336.155 127.192Z" fill="#F7EC77"/>
<path d="M180.081 68.302C180.081 68.491 184.587 80.073 190.093 94.039L200.106 119.433L199.843 154.874L199.581 190.315L197.022 190.999C195.615 191.375 192.762 192.49 190.683 193.477L186.902 195.271L142.992 151.369C118.841 127.222 99.107 107.24 99.138 106.962C99.255 105.923 110.884 97.032 119.081 91.713C128.863 85.367 138.775 80.251 149.676 75.92C161.106 71.38 180.081 66.625 180.081 68.302Z" fill="#5E8EE1"/>
<path d="M199.581 435.572C213.845 436.144 229.263 435.365 243.581 433.349L247.581 432.786L256.328 448.041C261.14 456.432 264.835 463.538 264.54 463.833C263.511 464.862 149.814 465.254 150.206 464.227C150.412 463.687 154.592 456.296 159.494 447.804L168.406 432.363L175.994 433.647C180.167 434.353 190.781 435.219 199.581 435.572Z" fill="#DC8839"/>
<path d="M295.253 482.686C298.251 485.683 298.251 491.233 295.254 494.23L293.026 496.458H207.467H121.907L119.994 494.097C116.619 489.932 117.913 482.826 122.396 480.913C123.704 480.355 158.398 480.077 208.803 480.22L293.026 480.458L295.253 482.686Z" fill="#DC8839"/>
<path d="M260.466 74.034C277.766 79.83 295.305 89.542 310.443 101.71L317.305 107.225L273.019 151.52L228.732 195.815L223.94 193.387C221.304 192.051 218.458 190.958 217.614 190.958C216.266 190.958 216.081 186.729 216.081 155.853V120.748L225.718 98.603C231.019 86.423 236.164 74.578 237.151 72.281L238.947 68.104L245.238 69.572C248.697 70.379 255.55 72.387 260.466 74.034Z" fill="#F86654"/>
<path d="M214.159 206.099C227.345 210.05 233.705 226.392 226.705 238.337C215.438 257.563 185.8 249.778 185.694 227.565C185.62 212.229 199.552 201.723 214.159 206.099Z" fill="#B4B4B4"/>
<path fill-rule="evenodd" clip-rule="evenodd" d="M189.518 1.44802C178.432 3.40702 165.04 7.73402 162.331 10.232C159.698 12.66 159.492 15.614 161.604 20.667C163.234 24.568 162.53 25.91 158.837 25.943C154.669 25.979 128.59 35.513 116.632 41.371C13.501 91.895 -29.139 216.529 21.49 319.458C45.728 368.734 89.438 407.298 140.649 424.589C146.937 426.712 152.081 428.803 152.081 429.236C152.081 429.669 147.534 437.884 141.978 447.491L131.874 464.958H126.092C121.709 464.958 119.011 465.634 114.945 467.751C98.64 476.243 98.998 500.715 115.56 509.801C118.296 511.302 126.805 511.484 205.895 511.729C265.851 511.916 294.46 511.664 297.201 510.926C302.217 509.575 308.833 503.689 311.215 498.458C313.478 493.489 313.63 484.21 311.53 479.176C309.71 474.812 304.791 469.421 300.653 467.255C299.042 466.412 294.593 465.438 290.766 465.09L283.807 464.458L273.5 446.589L263.194 428.719L274.888 424.759C310.731 412.622 342.837 390.429 367.91 360.458C435.285 279.922 431.061 160.462 358.16 84.713C345.046 71.086 335.93 63.461 321.081 53.699C303.878 42.389 279.89 31.652 261.333 26.957L257.086 25.882L258.583 22.298C261.845 14.491 259.872 11.222 249.581 7.38402C232.328 0.950016 206.678 -1.58498 189.518 1.44802ZM233.921 18.786C237.958 19.896 241.41 20.953 241.591 21.135C241.946 21.49 209.847 95.525 208.948 96.425C208.303 97.07 178.095 20.665 178.73 19.998C178.971 19.744 182.861 18.739 187.375 17.764C198.683 15.322 223.291 15.862 233.921 18.786ZM171.396 45.641C172.855 49.317 173.943 52.41 173.814 52.514C173.686 52.618 168.982 53.877 163.362 55.312C97.411 72.151 46.648 126.152 32.877 194.124C30.886 203.952 30.581 208.448 30.581 227.958C30.581 247.468 30.886 251.964 32.877 261.792C42.442 309.001 69.397 349.478 109.006 376.111C132.055 391.609 157.9 401.121 187.581 405.03C200.622 406.747 227.776 405.718 241.526 402.986C305.971 390.179 358.015 343.941 377.917 281.81C384.414 261.528 385.5 253.82 385.5 227.958C385.5 201.286 384.338 193.564 377.014 171.565C358.46 115.836 314.036 73.11 257.702 56.816C252.268 55.244 247.206 53.958 246.452 53.958C246.401 53.958 246.352 53.9582 246.305 53.9584C245.843 53.96 245.515 53.9612 245.356 53.7979C244.966 53.3978 245.589 52.0104 247.737 47.2238L248.016 46.603L250.951 40.062L260.049 42.555C294.53 52.004 328.52 73.298 352.22 100.299C409.937 166.054 416.424 262.691 367.974 334.958C346.373 367.178 316.251 391.743 280.379 406.393C230.135 426.913 172.314 424.941 123.581 401.046C84.686 381.976 54.257 351.606 34.983 312.622C12.833 267.822 9.28499 215.302 25.177 167.458C46.121 104.402 96.236 57.961 162.081 40.591C165.106 39.793 167.843 39.099 168.163 39.049C168.483 38.999 169.938 41.965 171.396 45.641ZM180.081 68.302C180.081 68.491 184.587 80.073 190.093 94.039L200.106 119.433L199.843 154.874L199.581 190.315L197.022 190.999C195.615 191.375 192.762 192.49 190.683 193.477L186.902 195.271L142.992 151.369C118.841 127.222 99.107 107.24 99.138 106.962C99.255 105.923 110.884 97.032 119.081 91.713C128.863 85.367 138.775 80.251 149.676 75.92C161.106 71.38 180.081 66.625 180.081 68.302ZM260.466 74.034C277.766 79.83 295.305 89.542 310.443 101.71L317.305 107.225L273.019 151.52L228.732 195.815L223.94 193.387C221.304 192.051 218.458 190.958 217.614 190.958C216.266 190.958 216.081 186.729 216.081 155.853V120.748L225.718 98.603C231.019 86.423 236.164 74.578 237.151 72.281L238.947 68.104L245.238 69.572C248.697 70.379 255.55 72.387 260.466 74.034ZM336.155 127.192C356.039 152.92 366.78 180.068 370.584 214.208L371.225 219.958H307.653C257.469 219.958 244.078 219.695 244.068 218.708C244.061 218.021 242.986 215.208 241.678 212.458L239.301 207.458L283.937 162.708C308.487 138.095 328.673 117.958 328.795 117.958C328.918 117.958 332.229 122.113 336.155 127.192ZM214.159 206.099C227.345 210.05 233.705 226.392 226.705 238.337C215.438 257.563 185.8 249.778 185.694 227.565C185.62 212.229 199.552 201.723 214.159 206.099ZM370.549 235.906C371.412 237.303 369.255 254.111 366.884 264.458C361.456 288.147 349.908 311.699 334.183 331.151C331.652 334.282 329.129 336.87 328.577 336.901C328.024 336.932 307.641 317.023 283.28 292.657L238.988 248.357L241.525 242.907C242.92 239.91 244.066 236.896 244.071 236.208C244.079 235.221 257.341 234.958 307.022 234.958C345.595 234.958 370.19 235.325 370.549 235.906ZM199.581 435.572C213.845 436.144 229.263 435.365 243.581 433.349L247.581 432.786L256.328 448.041C261.14 456.432 264.835 463.538 264.54 463.833C263.511 464.862 149.814 465.254 150.206 464.227C150.412 463.687 154.592 456.296 159.494 447.804L168.406 432.363L175.994 433.647C180.167 434.353 190.781 435.219 199.581 435.572ZM295.253 482.686C298.251 485.683 298.251 491.233 295.254 494.23L293.026 496.458H207.467H121.907L119.994 494.097C116.619 489.932 117.913 482.826 122.396 480.913C123.704 480.355 158.398 480.077 208.803 480.22L293.026 480.458L295.253 482.686ZM271.13 296.917L318 341.945C307.142 355.655 268.506 376.601 253.427 381.358C244.971 384.027 224.547 386.784 217.91 386.784V362.207V337.63V261.179L222.914 259.38C225.666 258.39 228.168 257.176 228.473 256.682C228.778 256.188 229.339 255.779 229.719 255.774C230.099 255.768 248.734 274.283 271.13 296.917ZM201.91 387.382V362.639V261.283L195.66 259.073L189.41 256.864L145.112 301.074L100.813 345.284C103.37 347.624 114.207 356.531 119.213 359.879C142.983 375.779 171.796 384.734 201.91 387.382ZM127.986 234.975L170.581 234.992L172.899 240.725C174.174 243.878 175.427 247.133 175.684 247.958C175.986 248.93 160.503 265.092 131.731 293.838L87.312 338.219L81.039 330.338C60.704 304.793 48.277 274.158 45.492 242.708L44.805 234.958L127.986 234.975ZM172.009 215.708C172.694 213.37 173.94 210.384 174.78 209.072C176.289 206.711 175.826 206.206 131.805 162.184L87.303 117.683L80.637 126.071C60.928 150.868 48.484 181.575 45.57 212.602L44.899 219.745L128.978 219.958H170.764L172.009 215.708Z" fill="black"/>
<path d="M174.78 209.072C173.94 210.384 172.694 213.37 172.009 215.708L170.764 219.958H128.978L44.899 219.745L45.57 212.602C48.484 181.575 60.928 150.868 80.637 126.071L87.303 117.683L131.805 162.184C175.826 206.206 176.289 206.711 174.78 209.072Z" fill="#FFEEC6"/>
<path d="M127.986 234.975L170.581 234.992L172.899 240.725C174.174 243.878 175.427 247.133 175.684 247.958C175.986 248.93 160.503 265.092 131.731 293.838L87.312 338.219L81.039 330.338C60.704 304.793 48.277 274.158 45.492 242.708L44.805 234.958L127.986 234.975Z" fill="#F7EC77"/>
<path d="M271.13 296.917L318 341.945C307.142 355.655 268.506 376.601 253.427 381.358C244.971 384.027 224.547 386.784 217.91 386.784V362.207V337.63V261.179L222.914 259.38C225.666 258.39 228.168 257.176 228.473 256.682C228.778 256.188 229.339 255.779 229.719 255.774C230.099 255.768 248.734 274.283 271.13 296.917Z" fill="#5E8EE1"/>
<path d="M201.91 362.639V387.382C171.796 384.734 142.983 375.779 119.213 359.879C114.207 356.531 103.37 347.624 100.813 345.284L145.112 301.074L189.41 256.864L195.66 259.073L201.91 261.283V362.639Z" fill="#F86654"/>
<path d="M233.921 18.786C237.958 19.896 241.41 20.953 241.591 21.135C241.946 21.49 209.847 95.525 208.948 96.425C208.303 97.07 178.095 20.665 178.73 19.998C178.971 19.744 182.861 18.739 187.375 17.764C198.683 15.322 223.291 15.862 233.921 18.786Z" fill="#AF751B"/>
<path d="M171.396 45.641C172.855 49.317 173.943 52.41 173.814 52.514C173.686 52.618 168.982 53.877 163.362 55.312C97.411 72.151 46.648 126.152 32.877 194.124C30.886 203.952 30.581 208.448 30.581 227.958C30.581 247.468 30.886 251.964 32.877 261.792C42.442 309.001 69.397 349.478 109.006 376.111C132.055 391.609 157.9 401.121 187.581 405.03C200.622 406.747 227.776 405.718 241.526 402.986C305.971 390.179 358.015 343.941 377.917 281.81C384.414 261.528 385.5 253.82 385.5 227.958C385.5 201.286 384.338 193.564 377.014 171.565C358.46 115.836 314.036 73.11 257.702 56.816C252.268 55.244 247.206 53.958 246.452 53.958C246.401 53.958 246.352 53.9582 246.305 53.9584C245.843 53.96 245.515 53.9612 245.356 53.7979C244.966 53.3978 245.589 52.0104 247.737 47.2238L248.016 46.603L250.951 40.062L260.049 42.555C294.53 52.004 328.52 73.298 352.22 100.299C409.937 166.054 416.424 262.691 367.974 334.958C346.373 367.178 316.251 391.743 280.379 406.393C230.135 426.913 172.314 424.941 123.581 401.046C84.686 381.976 54.257 351.606 34.983 312.622C12.833 267.822 9.28499 215.302 25.177 167.458C46.121 104.402 96.236 57.961 162.081 40.591C165.106 39.793 167.843 39.099 168.163 39.049C168.483 38.999 169.938 41.965 171.396 45.641Z" fill="#DBDEDF"/>
</svg>
